HIERARCHY
ROOT Hips
{
	OFFSET 0.000000 0.000000 0.000000
	CHANNELS 6 Xposition Yposition Zposition Zrotation Yrotation Xrotation 
	JOINT LowerBack
	{
		OFFSET 0.000000 0.000000 0.000000
		CHANNELS 3 Zrotation Yrotation Xrotation
		JOINT Spine
		{
			OFFSET 0.028270 2.035590 -0.193380
			CHANNELS 3 Zrotation Yrotation Xrotation
			JOINT Spine1
			{
				OFFSET 0.056720 2.048850 -0.042750
				CHANNELS 3 Zrotation Yrotation Xrotation
				JOINT Neck
				{
					OFFSET 0.000000 0.000000 0.000000
					CHANNELS 3 Zrotation Yrotation Xrotation
					JOINT Neck1
					{
						OFFSET -0.054170 1.746240 0.172020
						CHANNELS 3 Zrotation Yrotation Xrotation
						JOINT Head
						{
							OFFSET 0.104070 1.761360 -0.123970
							CHANNELS 3 Zrotation Yrotation Xrotation
							End Site
							{
								OFFSET 0.000000 0.000000 0.000000
							}
						}
					}
				}
				JOINT LeftShoulder
				{
					OFFSET 0.000000 0.000000 0.000000
					CHANNELS 3 Zrotation Yrotation Xrotation
					JOINT LeftArm
					{
						OFFSET 3.362410 1.200890 -0.311210
						CHANNELS 3 Zrotation Yrotation Xrotation
						JOINT LeftForeArm
						{
							OFFSET 4.983000 -0.000000 -0.000000
							CHANNELS 3 Zrotation Yrotation Xrotation
							JOINT LeftHand
							{
								OFFSET 3.483560 -0.000000 -0.000000
								CHANNELS 3 Zrotation Yrotation Xrotation
								JOINT LeftFingerBase
								{
									OFFSET 0.000000 0.000000 0.000000
									CHANNELS 3 Zrotation Yrotation Xrotation
									JOINT LeftHandIndex1
									{
										OFFSET 0.715260 -0.000000 -0.000000
										CHANNELS 3 Zrotation Yrotation Xrotation
										End Site
										{
											OFFSET 0.000000 0.000000 0.000000
										}
									}
								}
								JOINT LThumb
								{
									OFFSET 0.000000 0.000000 0.000000
									CHANNELS 3 Zrotation Yrotation Xrotation
									End Site
									{
										OFFSET 0.000000 0.000000 0.000000
									}
								}
							}
						}
					}
				}
				JOINT RightShoulder
				{
					OFFSET 0.000000 0.000000 0.000000
					CHANNELS 3 Zrotation Yrotation Xrotation
					JOINT RightArm
					{
						OFFSET -3.136600 1.374050 -0.404650
						CHANNELS 3 Zrotation Yrotation Xrotation
						JOINT RightForeArm
						{
							OFFSET -5.241900 -0.000000 -0.000000
							CHANNELS 3 Zrotation Yrotation Xrotation
							JOINT RightHand
							{
								OFFSET -3.444170 -0.000000 -0.000000
								CHANNELS 3 Zrotation Yrotation Xrotation
								JOINT RightFingerBase
								{
									OFFSET 0.000000 0.000000 0.000000
									CHANNELS 3 Zrotation Yrotation Xrotation
									JOINT RightHandIndex1
									{
										OFFSET -0.622530 -0.000000 -0.000000
										CHANNELS 3 Zrotation Yrotation Xrotation
										End Site
										{
											OFFSET 0.000000 0.000000 0.000000
										}
									}
								}
								JOINT RThumb
								{
									OFFSET 0.000000 0.000000 0.000000
									CHANNELS 3 Zrotation Yrotation Xrotation
									End Site
									{
										OFFSET 0.000000 0.000000 0.000000
									}
								}
							}
						}
					}
				}
			}
		}
	}
}
}
MOTION
Frames: 19
Frame Time: 0.008333
3.382344 15.421542 0.486306 -3.126214 64.543012 14.716804 7.732124 -1.684830 -5.305494 0.900675 -2.481311 -4.064888 -6.120380 -2.512082 -0.518198 7.172476 -2.874760 -7.174276 -3.752964 -0.283147 0.111143 0.000000 0.000000 0.000000 6.236089 8.129014 1.629496 -48.044404 -3.441751 -3.327197 -0.340754 -82.685708 -0.115977 17.689516 1.080995 0.113820 -0.321426 0.379774 -0.000000 0.000000 0.000000 0.000000 0.000000 0.000000 0.000000 11.939332 1.870814 0.940196 65.177291 17.588113 -10.653402 0.705192 46.930876 -0.071867 -16.925108 3.411679 -0.554789 0.163024 -0.285515 -0.000000 0.000000 0.000000 0.000000 0.000000 0.000000 0.000000 
3.550911 15.493998 0.503324 -2.259599 64.190067 15.435228 6.945361 -1.452198 -5.127493 0.750625 -2.178894 -4.055560 -5.974927 -2.214043 -0.629536 6.962425 -1.865885 -6.840693 -3.589907 -0.273806 0.198912 0.000000 0.000000 0.000000 5.875601 8.156868 2.037912 -50.329229 -2.284881 -1.006674 -0.555777 -76.823056 -0.095044 15.995644 2.555254 0.322704 -0.291349 0.315031 -0.000000 0.000000 0.000000 0.000000 0.000000 0.000000 0.000000 11.080093 3.108892 0.681437 64.329671 20.336370 -10.183321 0.470782 48.624436 -0.077883 -16.464211 3.608112 -0.572408 0.155765 -0.314862 -0.000000 0.000000 0.000000 0.000000 0.000000 0.000000 0.000000 
3.726610 15.579567 0.519445 -1.446457 63.892787 16.092445 6.218540 -1.214230 -4.981921 0.613719 -1.875891 -4.044690 -5.819612 -1.914022 -0.700400 6.687207 -1.007894 -6.562200 -3.414169 -0.263620 0.273541 0.000000 0.000000 0.000000 5.464293 8.263964 2.417087 -52.328962 -1.208735 1.380470 -0.858566 -70.903463 -0.074847 13.927213 3.760719 0.438055 -0.263295 0.256424 0.000000 0.000000 0.000000 0.000000 0.000000 0.000000 0.000000 10.093212 4.166454 0.402526 63.209947 23.027783 -9.932943 0.230106 50.415165 -0.084278 -16.077754 3.701384 -0.576140 0.147207 -0.344115 0.000000 0.000000 0.000000 0.000000 0.000000 0.000000 0.000000 
3.910853 15.678655 0.534363 -0.684540 63.673161 16.692053 5.561670 -0.972313 -4.870467 0.493312 -1.574298 -4.035958 -5.650993 -1.614439 -0.745397 6.347331 -0.306650 -6.328130 -3.229901 -0.252968 0.338339 0.000000 0.000000 0.000000 4.968414 8.438685 2.743935 -54.082572 -0.163706 3.806567 -1.235534 -65.052680 -0.056734 11.656722 4.564937 0.455972 -0.238635 0.204653 0.000000 0.000000 0.000000 0.000000 0.000000 0.000000 0.000000 8.985684 5.024266 0.108655 61.828678 25.611231 -9.957658 -0.009909 52.272311 -0.091070 -15.775204 3.720533 -0.571685 0.137574 -0.373159 0.000000 0.000000 0.000000 0.000000 0.000000 0.000000 0.000000 
4.104731 15.791438 0.548091 0.051440 63.548210 17.260508 4.969889 -0.729229 -4.795691 0.389548 -1.276712 -4.032378 -5.467786 -1.318473 -0.776469 5.951106 0.235029 -6.130770 -3.040185 -0.242094 0.395656 0.000000 0.000000 0.000000 4.367658 8.684643 3.002176 -55.622630 0.897268 6.219081 -1.658731 -59.383436 -0.041654 9.394333 4.925360 0.402247 -0.218282 0.159639 0.000000 0.000000 0.000000 0.000000 0.000000 0.000000 0.000000 7.772928 5.671778 -0.198293 60.211255 28.032915 -10.298335 -0.241007 54.175801 -0.098272 -15.561529 3.700000 -0.564739 0.127179 -0.401975 0.000000 0.000000 0.000000 0.000000 0.000000 0.000000 0.000000 
4.309009 15.917873 0.560889 0.792299 63.527761 17.831765 4.432350 -0.487911 -4.761830 0.300958 -0.985690 -4.035843 -5.271128 -1.029274 -0.799874 5.512538 0.611201 -5.967347 -2.847068 -0.231086 0.446305 0.000000 0.000000 0.000000 3.655919 9.018538 3.184405 -56.971421 2.011182 8.551558 -2.091683 -53.988731 -0.029961 7.345476 4.895201 0.316362 -0.202550 0.120690 0.000000 0.000000 0.000000 0.000000 0.000000 0.000000 0.000000 6.477429 6.102442 -0.519233 58.396189 30.251809 -10.969163 -0.454160 56.109100 -0.105926 -15.442231 3.673079 -0.560299 0.116495 -0.430582 0.000000 0.000000 0.000000 0.000000 0.000000 0.000000 0.000000 
4.524172 16.057420 0.573046 1.556277 63.612971 18.431756 3.940492 -0.249373 -4.776990 0.226315 -0.702201 -4.050021 -5.062654 -0.748523 -0.825349 5.042208 0.835518 -5.829527 -2.650341 -0.219943 0.492609 0.000000 0.000000 0.000000 2.840946 9.431668 3.293327 -58.146160 3.241786 10.708164 -2.497005 -48.950756 -0.021468 5.669219 4.595113 0.232001 -0.191003 0.086846 0.000000 0.000000 0.000000 0.000000 0.000000 0.000000 0.000000 5.107689 6.337135 -0.855290 56.447031 32.212141 -11.981221 -0.640847 58.067834 -0.114089 -15.413478 3.672107 -0.562759 0.105921 -0.459156 0.000000 0.000000 0.000000 0.000000 0.000000 0.000000 0.000000 
4.750273 16.209204 0.584965 2.361320 63.794565 19.087309 3.481497 -0.012997 -4.848682 0.163057 -0.425189 -4.075649 -4.845278 -0.475637 -0.851414 4.554225 0.916689 -5.718066 -2.449304 -0.208486 0.534064 0.000000 0.000000 0.000000 1.948439 9.946404 3.337857 -59.160019 4.587213 12.607230 -2.848506 -44.291281 -0.015629 4.466353 4.163600 0.167754 -0.182886 0.057270 0.000000 0.000000 0.000000 0.000000 0.000000 0.000000 0.000000 3.677888 6.394947 -1.210101 54.427255 33.883319 -13.315053 -0.793893 60.050515 -0.122835 -15.473692 3.717332 -0.574817 0.095903 -0.487754 0.000000 0.000000 0.000000 0.000000 0.000000 0.000000 0.000000 
4.986962 16.372069 0.597062 3.217669 64.054664 19.816651 3.041434 0.224197 -4.984448 0.107559 -0.151114 -4.114826 -4.623566 -0.207616 -0.881523 4.064136 0.869496 -5.627480 -2.244723 -0.196737 0.571852 0.000000 0.000000 0.000000 1.009611 10.537224 3.329984 -60.020957 6.084499 14.131583 -3.130454 -40.035572 -0.011734 3.777365 3.723386 0.128415 -0.177094 0.031293 0.000000 0.000000 0.000000 0.000000 0.000000 0.000000 0.000000 2.211591 6.303849 -1.580248 52.391339 35.243374 -14.931004 -0.906893 62.057611 -0.132235 -15.622446 3.814151 -0.597470 0.086946 -0.516285 0.000000 0.000000 0.000000 0.000000 0.000000 0.000000 0.000000 
5.233513 16.544433 0.609554 4.119787 64.368478 20.623935 2.610482 0.467420 -5.188774 0.057125 0.125685 -4.166411 -4.400241 0.060947 -0.908779 3.582241 0.713882 -5.561549 -2.035938 -0.184461 0.604328 0.000000 0.000000 0.000000 0.064638 11.227407 3.283385 -60.737242 7.677818 15.217346 -3.343688 -36.141651 -0.009061 3.603935 3.344062 0.110786 -0.172914 0.008631 0.000000 0.000000 0.000000 0.000000 0.000000 0.000000 0.000000 0.718718 6.095274 -1.966065 50.392427 36.284332 -16.785833 -0.976307 64.094187 -0.142295 -15.851284 3.959327 -0.630318 0.079296 -0.544579 0.000000 0.000000 0.000000 0.000000 0.000000 0.000000 0.000000 
5.488828 16.724494 0.622643 5.058182 64.708297 21.504833 2.178009 0.721900 -5.460133 0.008309 0.411172 -4.227930 -4.179007 0.335821 -0.925415 3.120145 0.467159 -5.525366 -1.824163 -0.171544 0.629386 0.000000 0.000000 0.000000 -0.849598 12.033987 3.210602 -61.307715 9.305956 15.828049 -3.497468 -32.569799 -0.006931 3.907367 3.041805 0.109371 -0.169804 -0.010916 0.000000 0.000000 0.000000 0.000000 0.000000 0.000000 0.000000 -0.779850 5.796302 -2.363977 48.460201 37.018852 -18.826085 -1.000153 66.160431 -0.152966 -16.152419 4.136730 -0.671561 0.073146 -0.572266 0.000000 0.000000 0.000000 0.000000 0.000000 0.000000 0.000000 
5.751445 16.910199 0.636372 6.022213 65.047706 22.447192 1.733023 0.991750 -5.791504 -0.042754 0.710452 -4.298351 -3.964165 0.621796 -0.933254 2.687359 0.154995 -5.515409 -1.611909 -0.158118 0.647453 0.000000 0.000000 0.000000 -1.707507 12.923976 3.122028 -61.724379 10.970421 15.924449 -3.604611 -29.326222 -0.004790 4.599703 2.791312 0.117875 -0.167304 -0.027630 0.000000 0.000000 0.000000 0.000000 0.000000 0.000000 0.000000 -2.260098 5.441755 -2.763214 46.605015 37.457382 -21.003669 -0.977147 68.255840 -0.164108 -16.515425 4.323418 -0.717802 0.068651 -0.598889 0.000000 0.000000 0.000000 0.000000 0.000000 0.000000 0.000000 
6.019652 17.099275 0.650794 7.009681 65.366458 23.440954 1.262216 1.277430 -6.167101 -0.100108 1.025650 -4.373230 -3.759144 0.920913 -0.926806 2.291755 -0.200909 -5.536353 -1.401001 -0.144151 0.656588 0.000000 0.000000 0.000000 -2.483229 13.907450 3.026728 -61.973788 12.615834 15.559872 -3.682464 -26.399661 -0.002307 5.549980 2.544662 0.129600 -0.165362 -0.041810 0.000000 0.000000 0.000000 0.000000 0.000000 0.000000 0.000000 -3.701848 5.058203 -3.157198 44.824086 37.626560 -23.277758 -0.908350 70.375002 -0.175538 -16.927295 4.496370 -0.765439 0.065758 -0.623964 0.000000 0.000000 0.000000 0.000000 0.000000 0.000000 0.000000 
6.291427 17.289325 0.666001 8.037530 65.652622 24.484885 0.748092 1.575386 -6.564632 -0.168799 1.355549 -4.450206 -3.568857 1.231801 -0.912848 1.941815 -0.576703 -5.581857 -1.194585 -0.129917 0.658166 0.000000 0.000000 0.000000 -3.167199 14.931971 2.930210 -62.034986 14.279973 14.788078 -3.746571 -23.848870 0.000552 6.580811 2.275850 0.137748 -0.163968 -0.053943 -0.000000 0.000000 0.000000 0.000000 0.000000 0.000000 0.000000 -5.076495 4.673541 -3.532160 43.097851 37.551489 -25.613131 -0.795374 72.505881 -0.187025 -17.376756 4.634384 -0.810777 0.064488 -0.646993 -0.000000 0.000000 0.000000 0.000000 0.000000 0.000000 0.000000 
6.564701 17.477787 0.682075 9.137194 65.904525 25.586300 0.172323 1.877829 -6.955250 -0.253355 1.695258 -4.525026 -3.396346 1.549723 -0.894357 1.642919 -0.951658 -5.649493 -0.994098 -0.115520 0.652505 0.000000 0.000000 0.000000 -3.747713 15.972129 2.836845 -61.893911 15.968772 13.740060 -3.811866 -21.716625 0.003511 7.496245 2.001643 0.138712 -0.163383 -0.064452 -0.000000 0.000000 0.000000 0.000000 0.000000 0.000000 0.000000 -6.365510 4.307975 -3.879037 41.404432 37.261619 -27.986991 -0.641902 74.632265 -0.198356 -17.853066 4.725793 -0.851115 0.064729 -0.667642 -0.000000 0.000000 0.000000 0.000000 0.000000 0.000000 0.000000 
6.837520 17.662127 0.698903 10.333436 66.130434 26.743596 -0.475622 2.174730 -7.307268 -0.356006 2.037293 -4.591530 -3.241887 1.867865 -0.867733 1.396923 -1.307741 -5.741581 -0.799279 -0.100874 0.638600 0.000000 0.000000 0.000000 -4.202384 17.039244 2.751722 -61.560626 17.637721 12.582648 -3.890681 -19.991559 0.006030 8.109640 1.781858 0.134585 -0.163954 -0.073526 -0.000000 0.000000 0.000000 0.000000 0.000000 0.000000 0.000000 -7.561847 3.974628 -4.195177 39.722189 36.786777 -30.387859 -0.453372 76.734282 -0.209378 -18.346506 4.769520 -0.885161 0.066220 -0.685785 -0.000000 0.000000 0.000000 0.000000 0.000000 0.000000 0.000000 
7.108282 17.840160 0.716021 11.616936 66.345163 27.925319 -1.184464 2.458622 -7.592636 -0.474547 2.374512 -4.646408 -3.105420 2.180100 -0.838492 1.200729 -1.627519 -5.850291 -0.610703 -0.086143 0.618528 0.000000 0.000000 0.000000 -4.531098 18.094164 2.676863 -61.051445 19.315919 11.427373 -3.989568 -18.690953 0.007454 8.275466 1.717281 0.133060 -0.165709 -0.081403 -0.000000 0.000000 0.000000 0.000000 0.000000 0.000000 0.000000 -8.661296 3.687232 -4.473773 38.026480 36.149926 -32.805551 -0.236229 78.787139 -0.219986 -18.851372 4.773538 -0.913313 0.068875 -0.701449 -0.000000 0.000000 0.000000 0.000000 0.000000 0.000000 0.000000 
7.375857 18.010218 0.732735 12.936487 66.565912 29.069399 -1.919121 2.726177 -7.791697 -0.601785 2.701189 -4.687408 -2.985897 2.482072 -0.812401 1.045300 -1.900803 -5.966968 -0.428987 -0.071526 0.594725 0.000000 0.000000 0.000000 -4.755884 19.100111 2.611020 -60.376908 21.044291 10.389435 -4.109049 -17.836456 0.007178 7.919052 1.924688 0.142626 -0.168312 -0.088530 -0.000000 0.000000 0.000000 0.000000 0.000000 0.000000 0.000000 -9.667528 3.453182 -4.710542 36.299927 35.382392 -35.227650 0.000897 80.760547 -0.230145 -19.363979 4.755416 -0.937973 0.072654 -0.714869 -0.000000 0.000000 0.000000 0.000000 0.000000 0.000000 0.000000 
7.639657 18.170879 0.747950 14.209028 66.810446 30.097482 -2.631389 2.977733 -7.901004 -0.727025 3.013615 -4.711346 -2.877562 2.771668 -0.781988 0.915405 -2.119001 -6.091529 -0.252388 -0.056901 0.567205 0.000000 0.000000 0.000000 -4.877849 20.083317 2.556016 -59.578976 22.766133 9.528531 -4.248923 -17.339211 0.004820 7.031732 2.461077 0.161177 -0.171349 -0.095105 -0.000000 0.000000 0.000000 0.000000 0.000000 0.000000 0.000000 -10.604902 3.275674 -4.911337 34.538106 34.507668 -37.646738 0.248337 82.628670 -0.239885 -19.879694 4.738110 -0.962645 0.077346 -0.726490 -0.000000 0.000000 0.000000 0.000000 0.000000 0.000000 0.000000 
